<?xml version="1.0" encoding="UTF-8"?>
<svg width="80px" height="72px" viewBox="0 0 80 72" version="1.1" xmlns="http://www.w3.org/2000/svg" xmlns:xlink="http://www.w3.org/1999/xlink">
    <!-- Generator: Sketch 51.3 (57544) - http://www.bohemiancoding.com/sketch -->
    <title>Group</title>
    <desc>Created with Sketch.</desc>
    <defs></defs>
    <g id="Page-1" stroke="none" stroke-width="1" fill="none" fill-rule="evenodd">
        <g id="Group">
            <g id="react" transform="translate(0.027100, 0.092141)" fill-rule="nonzero">
                <path d="M0.235465362,35.8297985 C0.235465362,41.8295334 6.09493034,47.4302227 15.3324176,50.5873041 C13.4877308,59.872452 15.0020166,67.3565865 20.059213,70.2726169 C25.2572514,73.2701426 33.0013762,71.1952928 40.3517054,64.7709084 C47.5165354,70.9358195 54.7575637,73.3619418 59.8103881,70.4374809 C65.0037422,67.4315247 66.582984,59.4399965 64.6873941,49.8647755 C74.308996,46.684276 79.6909722,41.9085307 79.6909722,35.8297985 C79.6909722,29.9693237 73.8208894,24.8994462 64.7076929,21.7626605 C66.7484968,11.7918287 65.0193566,4.48941911 59.7526148,1.4528632 C54.6751196,-1.47472016 47.3497735,1.07692353 40.0797023,7.40295157 C32.5160802,0.688494168 25.2631849,-1.36137622 20.0020643,1.68361023 C14.9292535,4.61962413 13.4817973,12.2398963 15.3324176,21.6967774 C6.40659405,24.8082715 0.235465362,29.9930541 0.235465362,35.8297985 Z" id="Shape" fill="#FFFFFF"></path>
                <path d="M62.7777513,24.8775893 C62.0266882,24.619998 61.2692528,24.3813692 60.5061664,24.16193 C60.6327135,23.6477937 60.7497376,23.1313607 60.8571784,22.6128962 C62.5766377,14.2672853 61.4523999,7.54408507 57.6131278,5.33091198 C53.9321858,3.20828915 47.9118924,5.42146224 41.8316396,10.7117827 C41.2325092,11.2342711 40.6466777,11.7718116 40.0747057,12.3238895 C39.6916717,11.9567904 39.301869,11.5968174 38.9054984,11.2441558 C32.5332561,5.58695063 26.1460239,3.20329327 22.3108115,5.42302345 C18.6333048,7.55157889 17.5440432,13.8722988 19.0920562,21.7813951 C19.2460727,22.5646263 19.4199693,23.3438182 19.6135777,24.1182161 C18.7098154,24.3748792 17.8369696,24.6484034 17.0019108,24.9394132 C9.53135057,27.5435136 4.76021024,31.6251443 4.76021024,35.8585248 C4.76021024,40.2311653 9.88173802,44.61692 17.6633374,47.275975 C18.2943102,47.4905886 18.9305348,47.6894446 19.5714187,47.8723577 C19.3632167,48.7066504 19.178374,49.5465976 19.017107,50.391216 C17.5412326,58.1629257 18.6938887,64.3337693 22.3617145,66.4492106 C26.1500836,68.6333451 32.508273,66.3883233 38.6997004,60.9771651 C39.1890561,60.5493932 39.6802856,60.0957052 40.1721397,59.6201602 C40.791664,60.2178105 41.4277299,60.7980779 42.0795965,61.3602863 C48.0767806,66.5200895 53.9996401,68.6036821 57.664343,66.4826205 C61.449277,64.2919288 62.6790682,57.6627136 61.082026,49.5971839 C60.9602335,48.98113 60.8181424,48.3519618 60.6588753,47.7112407 C61.1054476,47.5794745 61.543588,47.4433369 61.9711107,47.3015789 C70.0606263,44.6219159 75.3236206,40.2895546 75.3236206,35.8585248 C75.3236206,31.6098445 70.3988345,27.5007364 62.7777513,24.8775893 Z" id="Shape" fill="#979797"></path>
                <path d="M61.0230035,44.4408154 C60.6373274,44.5685224 60.2413459,44.6918581 59.8378695,44.8114469 C58.944725,41.9847178 57.7392922,38.9787616 56.264667,35.8735124 C57.6721502,32.8416402 58.8307398,29.874402 59.6989012,27.065783 C60.4205994,27.2749853 61.1213743,27.4951161 61.7965415,27.7277365 C68.3264895,29.974944 72.3094142,33.2981383 72.3094142,35.8585248 C72.3094142,38.5859609 68.0076431,42.126788 61.0233158,44.4408154 L61.0230035,44.4408154 Z M58.1249682,50.1826382 C58.831052,53.7490692 58.9319212,56.9735949 58.4641133,59.4943266 C58.0437733,61.7593319 57.1987212,63.2693355 56.1538046,63.8741487 C53.9299998,65.1612113 49.1741616,63.4882173 44.0457635,59.0756098 C43.4577246,58.5697773 42.8653138,58.0295982 42.2713415,57.4581949 C44.2596809,55.2837398 46.2467713,52.7558266 48.1860815,49.9487687 C51.5975186,49.646206 54.8203337,49.151302 57.7430397,48.475922 C57.8866923,49.0566926 58.0147305,49.6259102 58.1249682,50.1826382 Z M28.8167132,63.6518322 C26.6441237,64.4190114 24.9137343,64.4408684 23.8678809,63.8379286 C21.64189,62.5546129 20.7168921,57.5993284 21.9788491,50.953252 C22.1289161,50.1678255 22.3007407,49.3867114 22.4941247,48.6108107 C25.3843528,49.2499705 28.5837462,49.7099034 32.0033028,49.9871745 C33.9554169,52.7339696 35.9999682,55.2587605 38.0604463,57.4697478 C37.6225398,57.8932931 37.1742703,58.3059942 36.7160453,58.7074761 C33.9782139,61.1005008 31.2347614,62.7978497 28.8170255,63.6518322 L28.8167132,63.6518322 Z M18.6383014,44.4239543 C15.1975091,43.24805 12.3559981,41.7199364 10.4082561,40.0525627 C8.65819254,38.5537999 7.77441671,37.0659656 7.77441671,35.8585248 C7.77441671,33.2897078 11.605257,30.0127253 17.9943629,27.7855014 C18.7962878,27.507174 19.60619,27.2523793 20.4230289,27.0214446 C21.3061801,29.8931366 22.4644574,32.8956581 23.8622597,35.9319017 C22.4463446,39.0134205 21.2715161,42.0637151 20.3802454,44.9691293 C19.7952174,44.8017025 19.214394,44.6199226 18.6383014,44.4239543 Z M22.0503631,21.2024979 C20.7240748,14.4259043 21.6047277,9.3141864 23.8210376,8.03149523 C26.181937,6.66512313 31.4018356,8.61351479 36.9037305,13.4979203 C37.2553671,13.8101626 37.6085652,14.1370802 37.9623878,14.4752386 C35.9125275,16.6762342 33.8867135,19.1819783 31.951463,21.9128491 C28.6327754,22.2204077 25.4558668,22.7143749 22.5353468,23.3760163 C22.3554448,22.6555952 22.1937323,21.9307549 22.0503631,21.2021857 L22.0503631,21.2024979 Z M52.4881648,28.7172322 C51.7983441,27.5258501 51.0829339,26.3494647 50.342432,25.1888948 C52.5940305,25.4730352 54.7510057,25.8508484 56.7765075,26.3132791 C56.1684822,28.261983 55.4105585,30.299676 54.5180386,32.3885766 C53.8659236,31.1514072 53.1891641,29.9273817 52.4881648,28.7172322 Z M40.0756426,16.6290857 C41.46595,18.13503 42.8584434,19.8167668 44.2281398,21.6411983 C41.4497144,21.5099255 38.6666532,21.5093003 35.888169,21.6393248 C37.2591146,19.8317544 38.663475,18.1525156 40.0756426,16.6290857 Z M27.5834868,28.7378402 C26.8912643,29.9383655 26.2271586,31.1548803 25.5917122,32.386391 C24.7138698,30.3046719 23.9628165,28.2579239 23.3494823,26.2814304 C25.3628049,25.8308649 27.5097868,25.4627312 29.7467077,25.1832744 C28.9979071,26.3510369 28.2766346,27.5362188 27.5834868,28.7378402 Z M29.8110391,46.7489101 C27.5001059,46.490998 25.320646,46.1415989 23.307948,45.703523 C23.9309631,43.6920584 24.6985677,41.6012843 25.5951474,39.4749146 C26.2332726,40.7073381 26.9002966,41.9245867 27.5956661,43.125651 C28.3052198,44.3508358 29.0438874,45.5589321 29.8110391,46.7489101 Z M40.1590235,55.3009132 C38.7303047,53.7593732 37.3053332,52.0545305 35.9134644,50.2207317 C37.2644235,50.2738129 38.6419271,50.3006657 40.0419154,50.3006657 C41.4803153,50.3006657 42.9021638,50.2685048 44.3015276,50.2060563 C42.9274591,52.073265 41.5399623,53.7806056 40.1590235,55.3009132 Z M54.5467691,39.3665665 C55.4898797,41.5160422 56.2849657,43.5955756 56.9164126,45.5730058 C54.8702998,46.0398079 52.6614848,46.4157476 50.3340003,46.6948922 C51.0798544,45.5126537 51.8021119,44.3156964 52.500344,43.1047308 C53.2101395,41.8740109 53.8924502,40.6276475 54.5467691,39.3665665 Z M49.8889895,41.5990986 C48.8200891,43.4556773 47.6910909,45.2770121 46.5037845,47.0602156 C44.4102039,47.2097797 42.2466707,47.2869035 40.0419154,47.2869035 C37.8462165,47.2869035 35.7101647,47.2185224 33.6531218,47.085195 C32.4350215,45.3061434 31.2846659,43.4816564 30.2045224,41.6156475 C29.1294276,39.7595388 28.1252177,37.8632783 27.1940633,35.930965 C28.1228493,33.9980728 29.1240246,32.1007965 30.195466,30.2431601 L30.195466,30.2437846 C31.2665712,28.3857526 32.4078706,26.5690667 33.6168964,24.7976552 C35.7154736,24.6390362 37.8671399,24.5559797 40.0422277,24.5559797 C42.2269965,24.5559797 44.3814734,24.6396607 46.479426,24.7995287 C47.6762227,26.5682143 48.8102225,28.3785765 49.8793085,30.2272358 C50.9544343,32.0807393 51.9689708,33.9687218 52.9213086,35.8881878 C51.9787671,37.8272102 50.9674572,39.7320544 49.8893017,41.5990986 L49.8889895,41.5990986 Z M56.107586,7.9418817 C58.4703591,9.30450689 59.3894235,14.7990338 57.904805,22.0046483 C57.8074962,22.4740505 57.7017173,22.9416575 57.5875201,23.4072405 C54.6601298,22.7318605 51.4810351,22.2291505 48.1526666,21.9169082 C46.2136687,19.1563745 44.2047182,16.646259 42.1879605,14.4736774 C42.7164345,13.9642691 43.2574847,13.4680672 43.8106104,12.9855308 C49.0202035,8.45239778 53.88909,6.66262519 56.107586,7.9418817 Z" id="Shape" fill="#FFFFFF"></path>
                <path d="M40.0419154,29.5584129 C43.522056,29.5584129 46.342956,32.3792094 46.342956,35.8585248 C46.342956,39.3381525 43.522056,42.158949 40.0419154,42.158949 C36.5620871,42.158949 33.7408748,39.3381525 33.7408748,35.8585248 C33.7408748,32.3792094 36.5620871,29.5584129 40.0419154,29.5584129" id="Shape" fill="#3D3D3D"></path>
            </g>
            <polygon id="Polygon" stroke="#707070" stroke-width="2" points="40.0525589 14 59.1051178 25 59.1051178 47 40.0525589 58 21 47 21 25"></polygon>
            <g id="redux-seeklogo.com" transform="translate(14.932249, 7.680217)" fill="#545454" fill-rule="nonzero">
                <path d="M35.4897105,34.0678741 C37.379901,33.8717061 38.8138387,32.2369712 38.7486596,30.2752894 C38.6834806,28.3136076 37.054006,26.744262 35.0986365,26.744262 L34.9682787,26.744262 C32.9477301,26.8096515 31.3834346,28.5097758 31.4486137,30.5368469 C31.5137927,31.5176879 31.9048665,32.36775 32.4914773,32.9562546 C30.2753919,37.3373439 26.8860849,40.5414242 21.8021242,43.2223893 C18.3476382,45.0532924 14.7627942,45.7071863 11.1779501,45.2494606 C8.24489592,44.8571242 5.96363154,43.5493362 4.52969394,41.3914864 C2.4439665,38.1874059 2.24842955,34.7217682 4.00826208,31.2561302 C5.24666273,28.7713333 7.2020322,26.9404302 8.44043287,26.0249787 C8.17971695,25.1749166 7.78864305,23.7363499 7.5931061,22.6901197 C-1.85784633,29.5560061 -0.880161594,38.8413 1.98771363,43.2223893 C4.13862004,46.4918591 8.50561186,48.5189303 13.3288565,48.5189303 C14.6324362,48.5189303 15.9360158,48.3881514 17.2395955,48.0612045 C25.5825051,46.4264696 31.9048665,41.4568757 35.4897105,34.0678741 Z M46.9612114,25.9595894 C42.0076087,20.1399332 34.7075628,16.935853 26.3646529,16.935853 L25.3217892,16.935853 C24.7351783,15.7588439 23.4967778,14.9741712 22.1280191,14.9741712 L21.9976613,14.9741712 C19.9771127,15.0395606 18.4128172,16.7396848 18.4779961,18.766756 C18.5431751,20.7284378 20.1726496,22.2977833 22.1280191,22.2977833 L22.2583772,22.2977833 C23.6923147,22.232394 24.9307154,21.3169425 25.4521473,20.074544 L26.625369,20.074544 C31.5789715,20.074544 36.2718583,21.5131107 40.5084922,24.3248545 C43.7674413,26.4827045 46.1138846,29.2944484 47.4174642,32.6946969 C48.5255069,35.4410515 48.4603279,38.1220167 47.2871064,40.4106454 C45.4620947,43.8762834 42.3986827,45.7725757 38.3575856,45.7725757 C35.7504264,45.7725757 33.2736251,44.9879029 31.9700455,44.3993985 C31.2530768,45.0532924 29.949497,46.0995227 29.0369913,46.7534167 C31.8396874,48.0612045 34.7075628,48.7804878 37.44508,48.7804878 C43.7022623,48.7804878 48.3299701,45.3148501 50.0898025,41.8492121 C51.9799929,38.0566272 51.8496351,31.5176879 46.9612114,25.9595894 Z M13.8502884,35.1794939 C13.9154674,37.1411757 15.5449419,38.7105213 17.5003114,38.7105213 L17.6306694,38.7105213 C19.6512178,38.6451318 21.2155133,36.9450075 21.1503345,34.9179364 C21.0851555,32.9562546 19.4556809,31.386909 17.5003114,31.386909 L17.3699534,31.386909 C17.2395955,31.386909 17.0440585,31.386909 16.9137006,31.4522984 C14.2413623,27.0058197 13.1333196,22.1670045 13.5243935,16.935853 C13.7851094,13.0124894 15.0886891,9.61224089 17.3699534,6.80049697 C19.2601439,4.38108939 22.9101669,3.2040803 25.3869682,3.1386909 C32.2959404,3.00791212 35.2289946,11.6393121 35.4245315,15.10495 C36.2718583,15.3011182 37.7057959,15.7588439 38.6834806,16.0857909 C37.9013328,5.49270909 31.3834346,0 25.1262523,0 C19.2601439,0 13.8502884,4.2503106 11.699382,10.5276924 C8.70114879,18.8975348 10.6565183,26.9404302 14.3065413,33.2832015 C13.9806464,33.7409272 13.7851094,34.4602105 13.8502884,35.1794939 Z" id="Shape"></path>
            </g>
            <g id="Babel" transform="translate(36.612466, 32.070461)" fill="#FFFFFF" fill-rule="nonzero">
                <path d="M2.51101395,0.58198316 C2.26673807,0.759418439 1.98653899,0.93330482 1.67400946,1.10364327 L1.67760171,1.15687385 C1.69915518,1.15687385 1.72430139,1.14267922 1.76022434,1.12493569 C1.79614728,1.1213868 1.817701,1.13558142 1.817701,1.17106848 L1.87517767,1.13913032 L1.90391588,1.13558142 L1.90750812,1.16042275 C1.91110037,1.18526432 1.71352417,1.33785803 1.32196425,1.61110899 L1.35429495,1.66079043 L1.3255565,1.66433957 L1.26448759,1.6430469 C1.26448759,1.66079043 1.23934138,1.67143616 1.18186472,1.67498506 L1.18545696,1.70337432 L1.25011836,1.77434843 C1.22856464,1.77434843 1.19982619,1.77079953 1.16390324,1.7566049 C1.03817293,1.76725063 0.912442624,1.85951717 0.790304559,2.02985562 L0.822635259,2.0795373 C0.930404096,1.98372211 0.991473005,1.93404042 1.00943448,1.93404042 L1.01661921,2.01211233 C0.998657742,2.01211233 0.969919287,2.02630696 0.933996341,2.04405025 L1.00224999,2.14341362 C1.13157254,2.00501453 1.27167208,1.88790643 1.42973309,1.79209196 C1.50876347,1.81338438 1.54827866,1.83467681 1.54827866,1.86306631 L1.60575533,1.85951717 C2.02605394,1.55077939 2.44276006,1.33076023 2.85587394,1.19236091 L2.85946618,1.24559149 C2.78402804,1.35915046 2.73014338,1.41592897 2.70140492,1.41947787 C2.70499717,1.45851382 2.71936664,1.49045198 2.74092012,1.52239014 C2.74810461,1.59336425 2.56130563,2.05824487 2.18052246,2.92412884 C1.31118752,4.93269616 0.585544113,6.41605519 0,7.3813035 C0,7.39904727 0.0143691042,7.42743653 0.0323305774,7.4593759 C0.176022483,7.42388836 0.269422092,7.39194996 0.308937284,7.35646339 L0.341267983,7.35291424 L0.344860228,7.40614459 L0.398744646,7.40259641 L0.456221433,7.37065802 C0.456221433,7.38840178 0.477775151,7.3954991 0.513698097,7.39194996 L0.517290466,7.44518127 C0.520882711,7.49841258 0.492144379,7.58003218 0.423890733,7.69004103 C0.362821823,7.75746794 0.301752792,7.89586605 0.233499146,8.10524022 L0.237091515,8.1300813 L0.290975933,8.1265341 C0.524474956,7.86747873 0.704089686,7.61197155 0.82622775,7.36356264 C1.51235596,7.16483493 2.03323868,6.9696554 2.39606038,6.77802597 C2.75888184,6.74608757 3.0390814,6.65382152 3.22588013,6.49767867 L3.22228837,6.46928941 L3.08578059,6.50832512 L3.05344989,6.51187426 L3.04985765,6.48348501 C3.31568774,6.44444833 3.50248696,6.38412164 3.60307131,6.30604924 C4.12395426,5.90859383 4.51551442,5.62824653 4.78134353,5.46145819 C5.60397904,4.86527604 5.99194695,4.29038486 5.94524776,3.74388463 C5.94165502,3.68710515 5.75844854,3.46353684 5.40281083,3.07317923 C5.39562634,2.99865646 5.5213569,2.89219529 5.77281752,2.75024707 L6.4876837,2.12922335 C6.64574446,1.9269465 6.74273705,1.60046641 6.77506775,1.14978041 L6.76429052,1.04331925 C6.73555158,0.727484643 6.50564541,0.471977453 6.06738557,0.276798646 C5.80874046,0.102912268 5.34533392,0.0106457288 4.67716743,0 C4.12754651,0.049677323 3.4019031,0.241307231 2.51101395,0.58198316 Z M6.36195412,0.628116914 L6.34040016,0.681347497 L5.54291086,0.351318508 C6.07457056,0.372609724 6.34758465,0.464876264 6.36195412,0.628116914 Z M3.1360735,2.81411902 C3.18995767,2.52312429 3.25102683,2.35633595 3.31928047,2.31730024 L3.91560108,0.993633203 C3.90841659,0.912013362 4.03414714,0.84813608 4.2963845,0.805552195 L4.38259937,0.798454395 L4.38978386,0.872977406 C4.64842897,0.833941452 4.80649023,0.812649024 4.86755938,0.805552195 C5.34174217,0.76651624 5.5860183,0.858782778 5.60757226,1.08944864 L5.66145643,1.08589974 L5.6506797,0.951049317 L5.7081566,0.947500417 C5.84825565,1.02202343 5.92369428,1.11429021 5.93087877,1.22429906 C5.93806326,1.29882208 5.89854807,1.39108861 5.80874095,1.50109771 C5.772818,1.50464661 5.75126404,1.47980528 5.74767179,1.4265747 L5.69019489,1.4301236 L5.6758259,1.58981535 C5.43514251,1.94468591 5.26271227,2.12567033 5.15494344,2.13631582 C5.05795134,2.26761856 4.99688267,2.33504353 4.97173597,2.33859267 C4.89629783,2.42731007 4.6915369,2.57990378 4.3538614,2.79282611 C4.24250032,2.80347208 3.82938669,2.9596159 3.11452002,3.26835246 C3.07859708,3.25060918 3.04267413,3.24706004 2.9995667,3.25060918 L2.99597445,3.20092749 C2.98878898,3.09801547 3.03189691,2.97026284 3.1360735,2.81411902 Z M6.43739177,1.18171421 L6.4409845,1.2313959 C6.41224605,1.2349448 6.35836138,1.14977606 6.279331,0.979437605 L6.27573876,0.929755921 C6.32603117,0.922659091 6.37991535,1.00782783 6.43739177,1.18171421 Z M1.1926417,1.81338439 L1.19623394,1.85456123 C1.17827247,1.85456123 1.14953426,1.87809017 1.11361132,1.90750215 L1.08487286,1.91338439 L1.08128062,1.83103269 L1.1926417,1.81338439 Z M2.92772032,1.77079953 L2.93490481,1.84887144 C2.9097586,1.85242034 2.87383565,1.8879074 2.83072773,1.96243065 L2.82713597,1.90919983 C2.8774279,1.84887144 2.90257362,1.80273866 2.90257362,1.77080074 L2.92772032,1.77079953 Z M2.70587848,2.32439804 L2.73315177,2.43085921 L2.66042506,2.43440786 L2.63315177,2.3279467 L2.70587848,2.32439804 Z M2.59363658,2.51602795 C2.58645209,2.60474535 2.56489812,2.65087789 2.51819844,2.65442703 L2.48945999,2.65797617 C2.52179069,2.59764754 2.53975216,2.55506366 2.53615991,2.52312575 L2.59363658,2.51602795 Z M2.47509101,2.79282757 L2.47868325,2.81766865 L2.42839108,2.90283739 L2.37450666,2.90638653 L2.37091442,2.88154496 C2.42479883,2.87799631 2.4499448,2.84960705 2.44635255,2.79637622 L2.47509101,2.79282757 Z M2.39906852,3.04123696 L2.37240176,3.17253921 L2.3190687,3.17608835 L2.29906852,3.04478561 L2.39906852,3.04123696 Z M5.26630403,3.13705118 L5.3848501,3.20802529 C5.38844234,3.24351235 5.37048112,3.26480478 5.33455817,3.26835392 C5.28426624,3.23641552 5.24475056,3.22222089 5.21601211,3.22222089 L5.20882761,3.14414898 L5.26630403,3.13705118 Z M2.98519674,3.4386914 L2.98878898,3.52104514 L2.8774279,3.5386914 L2.87383565,3.45633766 L2.98519674,3.4386914 Z M4.82445195,3.62322448 C4.90348233,3.65871153 4.94299752,3.69419859 4.94658977,3.72258785 L4.95018201,3.74742893 C4.87474387,3.75452673 4.80649023,3.71549102 4.74182883,3.63032228 L4.82445195,3.62322448 Z M2.45353729,4.19811396 C2.77684404,4.1697247 3.28694978,4.02067892 3.98026248,3.75097662 L4.14910047,3.73678247 C4.50114544,3.70839322 4.76338279,3.77226953 4.93581254,3.93551018 L4.94658977,4.04197135 C4.81726648,4.41103629 4.6735747,4.62395863 4.51910667,4.6913836 L3.80064775,5.25562735 C3.26539532,5.6034006 2.97801176,5.77728819 2.93490481,5.78083539 C2.08353061,6.24571674 1.55187116,6.48347919 1.34711022,6.50122296 L1.31477952,6.50477211 C1.34351822,6.40540971 1.72070915,5.63888911 2.45353729,4.19811396 Z M3.22947287,3.89647398 L3.23306511,3.96647576 L3.11811178,3.99647398 L3.11451954,3.92647221 L3.22947287,3.89647398 Z M5.80874046,3.78291599 L5.82670169,3.99228967 C5.80155597,4.04906915 5.77640976,4.07745865 5.74767131,4.07745865 L5.7153411,3.70839322 C5.77640976,3.7332343 5.80514822,3.7580749 5.80874046,3.78291599 Z M1.43691783,5.61404802 C1.40099488,5.79503293 1.36147969,5.88729898 1.32196425,5.89084716 L1.31837225,5.86600607 C1.31118752,5.77374002 1.35070271,5.69211945 1.43691783,5.61404802 Z M2.15537674,6.6147829 C2.36372992,6.57574719 2.93490481,6.27765611 3.87249364,5.72760602 L3.87608589,5.77728819 C3.87967813,5.79858013 3.7970555,5.86600607 3.63540249,5.98311224 C3.15762697,6.21377835 2.87742839,6.37347034 2.79480527,6.45508994 C2.2775148,6.6325257 2.02246194,6.74253553 2.02605418,6.78511941 C1.56624063,6.96610335 1.26448783,7.09740512 1.12079581,7.17902568 C1.08846535,7.18257482 1.03817318,7.1683802 0.973511777,7.13998997 C0.966327286,7.04772295 1.00584248,6.97320066 1.09924209,6.91287301 C1.17827247,6.90577472 1.2573031,6.91642215 1.32914899,6.94835958 C1.41536411,6.90577472 1.56264814,6.85609352 1.77459356,6.80641135 L1.77100132,6.75318101 L1.60216357,6.76737564 C1.62371729,6.73898638 1.78537054,6.66446313 2.09430783,6.54025867 L2.18052295,6.53316136 L2.18411519,6.55800245 C2.04042341,6.56864793 1.95780078,6.61478193 1.93983931,6.68930518 C1.94343156,6.72124261 1.96139303,6.73898638 1.99731597,6.73543724 C2.10149232,6.66446507 2.15537674,6.62542936 2.15537674,6.6147829 Z M1.31354882,5.97246675 L1.3201056,6.00163446 C1.32666239,6.04330018 1.29387801,6.06830075 1.22830924,6.07246675 L1.22175245,6.04330018 C1.21519566,6.00580047 1.24798005,5.98080104 1.31354882,5.97246675 Z M2.61519054,6.33443559 C2.5469369,6.34153291 2.42120659,6.39476422 2.23081512,6.5012249 L2.20207667,6.50477404 L2.19848442,6.4515437 C2.33499171,6.44089725 2.45353729,6.3876669 2.55052939,6.29185171 C2.59004433,6.28475343 2.61159781,6.3024972 2.61519054,6.33443559 Z M1.22138015,6.72170959 L1.30759527,6.71059713 L1.31118752,6.7550409 C1.2896338,6.7550409 1.26448784,6.77726278 1.22856464,6.8050409 L1.17468023,6.81059713 C1.17108798,6.7717111 1.18545721,6.73837676 1.22138015,6.72170959 Z M0.650205268,7.03353123 L0.711274424,7.05837231 C0.68972046,7.21806431 0.643020778,7.2996839 0.560397904,7.30678122 C0.495736627,7.27839196 0.438259963,7.2677455 0.384375543,7.27129465 L0.377190929,7.19322225 C0.373598684,7.16128482 0.391560157,7.14354105 0.431075347,7.1328946 C0.466998293,7.12934546 0.488552134,7.15418654 0.492144379,7.20741688 C0.589136359,7.09030974 0.643020776,7.03353123 0.650205268,7.03353123 Z" id="Shape"></path>
            </g>
        </g>
    </g>
</svg>