<svg version="1" xmlns="http://www.w3.org/2000/svg" width="682.667" height="682.667" viewBox="0 0 512.000000 512.000000"><path d="M149 28.6c-30.9 5-50.7 28.8-55.6 66.9-2 15.8-.6 44.6 3.1 63.6l.6 3.5-9.8 3.8c-30.8 12.1-54.7 27.9-70 46.3-20.3 24.5-20.6 54-.6 80.4 4.8 6.3 14.7 16.4 20.8 21 1.7 1.3 3.2 2.6 3.5 2.9.3.3 4.2 2.9 8.8 5.8 10.4 6.6 27 15 38.5 19.3 8.3 3.1 8.7 3.4 8.3 5.8-.7 3.1-1.4 7.8-3.2 21.1-1 7.6-1.1 28-.2 37.5 1.7 18.1 8.4 37.9 15.7 46.7 10.6 12.9 20.5 19.6 33.6 22.7 8.4 2 9.7 2.1 18 2.1 8.1 0 9.5-.1 17.2-1.4 2.4-.4 4.4-.7 4.5-.6.2 0 5-1.5 10.8-3.5 18.4-6.4 36.9-17 54.4-31.1l7.8-6.4 3.2 2.6c19 15.5 37.5 26.9 56.1 34.4 14.6 6 34.6 8 47.9 5 16.7-3.9 31.2-15.9 39.8-33 5-9.9 9-23.7 10.5-35.6 1.9-16.2 0-54.6-3.3-65.7-.3-1.1.1-1.9 1.3-2.3 37.5-13.2 64.5-29.8 78.8-48.4 16.9-22 18.7-48.9 4.8-71.4-4.4-7.1-6.7-9.9-14.8-17.9-12.5-12.3-36.7-26.8-59-35.2-5.5-2.1-10.3-4.1-10.7-4.4-.4-.3-.2-2.9.3-5.6 1.7-8.3 2-10.7 3.5-24 .9-7.9.9-26.4-.1-35.1-3.2-30.7-16.7-53.7-37.9-64.4-4.5-2.2-9.2-4.3-10.6-4.6-1.4-.2-4.5-.9-6.8-1.3-9.9-2-24.2-.5-38.2 3.9-6.4 2.1-7.6 2.6-17.5 7.1-9 4.1-34.8 20.6-37.5 23.8-1 1.3-11.3 9.1-11.9 9.1-.3 0-2.2-1.5-4.1-3.3-11-10.2-28.2-21.8-43.5-29.2-9-4.4-21.1-8.9-23.5-8.8-.3 0-1.5-.3-2.7-.8-5.7-2.1-21.1-2.8-30.3-1.3z"/></svg>